HIERARCHY
ROOT Hips
{
	OFFSET -0.001795 -0.223333 0.028219
	CHANNELS 6 Xposition Yposition Zposition Zrotation Yrotation Xrotation 
	JOINT LeftUpLeg
	{
		OFFSET 0.069520 -0.091406 -0.006815
		CHANNELS 3 Zrotation Yrotation Xrotation
		JOINT LeftLeg
		{
			OFFSET 0.034277 -0.375199 -0.004496
			CHANNELS 3 Zrotation Yrotation Xrotation
			JOINT LeftFoot
			{
				OFFSET -0.013596 -0.397961 -0.043693
				CHANNELS 3 Zrotation Yrotation Xrotation
				JOINT LeftToe
				{
					OFFSET 0.026358 -0.055791 0.119288
					CHANNELS 3 Zrotation Yrotation Xrotation
					End Site
					{
						OFFSET 0.000000 0.000000 0.000000
					}
				}
			}
		}
	}
	JOINT RightUpLeg
	{
		OFFSET -0.067670 -0.090522 -0.004320
		CHANNELS 3 Zrotation Yrotation Xrotation
		JOINT RightLeg
		{
			OFFSET -0.038290 -0.382569 -0.008850
			CHANNELS 3 Zrotation Yrotation Xrotation
			JOINT RightFoot
			{
				OFFSET 0.015774 -0.398415 -0.042312
				CHANNELS 3 Zrotation Yrotation Xrotation
				JOINT RightToe
				{
					OFFSET -0.025372 -0.048144 0.123348
					CHANNELS 3 Zrotation Yrotation Xrotation
					End Site
					{
						OFFSET 0.000000 0.000000 0.000000
					}
				}
			}
		}
	}
	JOINT Spine
	{
		OFFSET -0.002533 0.108963 -0.026696
		CHANNELS 3 Zrotation Yrotation Xrotation
		JOINT Spine1
		{
			OFFSET 0.005487 0.135180 0.001092
			CHANNELS 3 Zrotation Yrotation Xrotation
			JOINT Spine2
			{
				OFFSET 0.001457 0.052922 0.025425
				CHANNELS 3 Zrotation Yrotation Xrotation
				JOINT Neck
				{
					OFFSET -0.002778 0.213870 -0.042857
					CHANNELS 3 Zrotation Yrotation Xrotation
					JOINT Head
					{
						OFFSET 0.005152 0.064970 0.051349
						CHANNELS 3 Zrotation Yrotation Xrotation
						End Site
						{
							OFFSET 0.000000 0.000000 0.000000
						}
					}
				}
				JOINT LeftShoulder
				{
					OFFSET 0.078845 0.121749 -0.034090
					CHANNELS 3 Zrotation Yrotation Xrotation
					JOINT LeftArm
					{
						OFFSET 0.090977 0.030469 -0.008868
						CHANNELS 3 Zrotation Yrotation Xrotation
						JOINT LeftForeArm
						{
							OFFSET 0.259612 -0.012772 -0.027456
							CHANNELS 3 Zrotation Yrotation Xrotation
							JOINT LeftHand
							{
								OFFSET 0.249234 0.008986 -0.001171
								CHANNELS 3 Zrotation Yrotation Xrotation
								End Site
								{
									OFFSET 0.000000 0.000000 0.000000
								}
							}
						}
					}
				}
				JOINT RightShoulder
				{
					OFFSET -0.081759 0.118833 -0.038615
					CHANNELS 3 Zrotation Yrotation Xrotation
					JOINT RightArm
					{
						OFFSET -0.096012 0.032551 -0.009143
						CHANNELS 3 Zrotation Yrotation Xrotation
						JOINT RightForeArm
						{
							OFFSET -0.253742 -0.013329 -0.021401
							CHANNELS 3 Zrotation Yrotation Xrotation
							JOINT RightHand
							{
								OFFSET -0.255298 0.007772 -0.005559
								CHANNELS 3 Zrotation Yrotation Xrotation
								End Site
								{
									OFFSET 0.000000 0.000000 0.000000
								}
							}
						}
					}
				}
			}
		}
	}
}
MOTION
Frames: 13
Frame Time: 0.050000
0.000000 0.970634 0.000000 -1.797687 6.244492 6.454392 3.178140 -0.328903 -3.417371 2.340619 0.187298 -8.131983 15.914806 24.970551 53.186320 0.000000 0.000000 0.000000 -0.927000 0.696609 -7.316023 -4.779658 0.250842 -3.535936 3.549405 -1.196441 23.222018 0.000000 0.000000 0.000000 3.532897 -0.228612 1.634774 0.272714 -0.168365 0.399860 -2.619417 -0.306397 -1.765018 4.218437 -1.627321 -10.851452 0.000000 0.000000 0.000000 -10.151916 -30.206265 12.124820 -28.944856 -36.994659 5.165441 -4.406959 -39.700512 2.827714 0.000000 0.000000 0.000000 11.207374 25.415231 11.647726 28.623163 33.326529 4.535719 18.541182 46.902818 9.836103 0.000000 0.000000 0.000000 
-0.000536 0.969701 -0.000595 -1.927914 5.666516 7.008754 2.156608 -0.353787 -3.909263 4.169573 0.146633 -8.304513 16.986057 25.627889 53.642913 0.000000 0.000000 0.000000 -0.577063 0.767988 -7.938712 -4.661714 0.234632 -3.556450 2.971580 -1.997492 22.475870 0.000000 0.000000 0.000000 3.019796 -0.130658 0.457725 0.442180 -0.214267 -0.193740 -3.213413 -0.025479 -0.070431 6.145528 -2.387647 -14.040129 0.000000 0.000000 0.000000 -9.217227 -26.994826 10.440692 -33.683487 -33.794346 5.310811 -8.833838 -45.806481 5.080352 0.000000 0.000000 0.000000 10.794327 21.303900 9.569341 32.760979 30.740321 4.681410 27.410982 51.790958 15.615483 0.000000 0.000000 0.000000 
-0.001067 0.969116 -0.000097 -1.647553 7.095831 7.319376 1.750833 -0.354521 -3.917201 5.022548 0.111488 -8.115971 12.911008 23.283827 48.660789 0.000000 0.000000 0.000000 -0.704715 0.753583 -7.874589 -5.290516 0.283611 -3.663766 2.939677 -1.658394 22.268020 0.000000 0.000000 0.000000 3.266080 -0.158221 0.645693 1.323775 -0.603245 -0.582759 -5.026077 -0.243795 -0.039463 6.106337 -2.615606 -11.938228 0.000000 0.000000 0.000000 -10.984229 -23.385026 8.746990 -34.748563 -25.552424 3.324060 -30.010680 -54.719948 17.030122 0.000000 0.000000 0.000000 11.253301 17.086133 7.775548 35.353405 21.062526 2.368267 56.691575 59.252637 37.385100 0.000000 0.000000 0.000000 
-0.001374 0.969825 0.000895 -1.287445 7.784331 8.795324 1.345165 -0.445690 -5.053063 5.489039 0.153404 -8.853807 11.271646 22.173253 48.346515 0.000000 0.000000 0.000000 -1.768620 0.749321 -8.400967 -4.135175 0.117917 -4.645818 2.763067 -1.591664 21.650729 0.000000 0.000000 0.000000 3.210305 -0.119068 -0.164509 1.014877 -0.393623 -1.642195 -4.561677 -0.930704 1.410394 6.100517 -2.537646 -12.804068 0.000000 0.000000 0.000000 -11.560887 -18.296301 6.529537 -34.582584 -15.747815 0.546731 -67.424958 -57.264342 41.421384 0.000000 0.000000 0.000000 10.320317 11.489303 4.922898 34.849121 12.895423 0.058674 87.070532 52.346967 53.687905 0.000000 0.000000 0.000000 
-0.001765 0.969968 0.002319 -1.110490 8.423444 9.111148 1.096280 -0.417667 -4.724636 5.699318 0.135272 -8.660407 8.943458 20.531853 43.065522 0.000000 0.000000 0.000000 -1.761174 0.815701 -9.342023 -4.119173 0.210620 -3.506948 1.907360 -2.906201 21.942614 0.000000 0.000000 0.000000 2.864533 -0.135810 0.250261 1.679589 -0.643595 -2.302072 -4.934652 -1.148672 2.373644 6.564463 -3.031021 -11.671577 0.000000 0.000000 0.000000 -12.093968 -12.760979 3.939230 -31.536677 -6.572325 -1.716802 -97.557006 -47.265156 54.145567 0.000000 0.000000 0.000000 9.737031 4.562126 1.717609 33.385384 4.440799 -2.092668 105.651565 41.831920 57.429912 0.000000 0.000000 0.000000 
-0.002302 0.970728 0.003610 -1.037793 8.275148 9.280392 0.441683 -0.383139 -4.386189 6.495623 0.147653 -9.086910 9.095243 20.642737 42.303870 0.000000 0.000000 0.000000 -2.524189 0.769432 -9.280079 -3.328849 0.133419 -3.675159 2.786844 -1.515796 21.905179 0.000000 0.000000 0.000000 2.949618 -0.180421 0.872875 1.757256 -0.591099 -3.548491 -4.580977 -1.165465 3.911593 5.515080 -2.207535 -12.866659 0.000000 0.000000 0.000000 -12.611491 -8.186639 1.868345 -28.043610 2.026269 -3.312627 -114.081796 -34.474267 51.844329 0.000000 0.000000 0.000000 7.909447 -0.337387 -0.438900 30.823074 -2.094812 -3.404255 117.100382 32.546727 54.807690 0.000000 0.000000 0.000000 
-0.003116 0.971465 0.004229 -0.969067 7.858378 9.197027 0.584531 -0.360911 -4.106827 6.334204 0.139007 -8.924548 8.321974 19.934174 41.666760 0.000000 0.000000 0.000000 -2.617469 0.816443 -10.045274 -2.905792 0.203406 -2.077950 2.402343 -2.037431 21.250406 0.000000 0.000000 0.000000 3.214341 -0.194653 0.906649 1.115241 -0.269737 -4.360777 -4.432414 -0.854554 5.375999 5.668030 -2.301011 -13.103553 0.000000 0.000000 0.000000 -11.087177 -2.270779 -0.625305 -25.422265 5.953338 -3.741893 -122.929094 -24.858226 44.003487 0.000000 0.000000 0.000000 5.947299 -5.443813 -2.468190 28.702187 -6.725025 -4.083914 123.679751 25.744970 49.707125 0.000000 0.000000 0.000000 
-0.004353 0.972640 0.003545 -0.879924 8.126059 8.876267 0.676934 -0.331044 -3.751110 5.958163 0.177098 -9.341371 8.879134 20.430881 42.595576 0.000000 0.000000 0.000000 -2.663365 0.803378 -9.980588 -3.044067 0.287331 -1.019854 2.621451 -1.298585 20.167264 0.000000 0.000000 0.000000 3.283532 -0.227613 1.388641 1.372086 -0.368230 -4.449772 -5.194419 -0.095043 5.892317 5.584817 -2.198227 -12.889135 0.000000 0.000000 0.000000 -9.520196 -0.248570 -1.402615 -24.099836 7.413508 -3.762165 -128.875932 -21.669504 42.439208 0.000000 0.000000 0.000000 5.104792 -7.754020 -3.290050 27.712916 -8.543444 -4.268262 127.277360 24.162071 51.141942 0.000000 0.000000 0.000000 
-0.006211 0.973982 0.001316 -0.801558 7.694409 8.289489 0.734013 -0.332070 -3.752281 5.878812 0.105977 -8.356685 8.803741 20.319835 42.938327 0.000000 0.000000 0.000000 -2.432137 0.810630 -9.855387 -2.992291 0.364807 0.321860 2.169134 -1.613767 18.364843 0.000000 0.000000 0.000000 3.301043 -0.251399 1.820811 1.354626 -0.366659 -4.430710 -5.236042 0.601948 6.715998 5.214108 -1.948499 -12.789927 0.000000 0.000000 0.000000 -8.236337 0.208190 -1.414676 -24.420655 6.185005 -3.665982 -132.036646 -23.721708 49.493546 0.000000 0.000000 0.000000 4.227799 -7.727596 -3.174405 27.166698 -7.342449 -4.012750 128.983982 24.882679 54.842159 0.000000 0.000000 0.000000 
-0.008733 0.974765 -0.002269 -0.506178 8.686942 7.990818 1.173536 -0.351628 -3.933451 4.902014 0.119970 -8.147610 8.311714 20.025342 42.709212 0.000000 0.000000 0.000000 -2.250769 0.805162 -9.784803 -3.333925 0.452243 1.001545 1.416196 -2.552262 17.792001 0.000000 0.000000 0.000000 3.126877 -0.337987 3.238867 1.696033 -0.470119 -4.863669 -5.815747 0.762121 7.061269 5.448272 -2.000590 -12.992306 0.000000 0.000000 0.000000 -7.350688 0.102772 -1.297862 -23.786013 3.652372 -3.148341 -135.522395 -26.141091 58.114821 0.000000 0.000000 0.000000 4.378504 -7.452637 -3.050910 26.563751 -6.145946 -3.750174 132.032420 24.778053 58.926834 0.000000 0.000000 0.000000 
-0.011871 0.974725 -0.007212 -0.332124 8.792517 8.137226 1.289969 -0.439616 -4.991327 4.196803 0.079813 -7.121683 9.494416 21.033334 42.302738 0.000000 0.000000 0.000000 -2.268692 0.825066 -10.114453 -3.677625 0.517253 1.350427 1.770489 -1.613080 16.738332 0.000000 0.000000 0.000000 2.611456 -0.405686 4.717984 2.336850 -0.786382 -4.208614 -5.957260 0.988567 6.405975 5.410763 -1.853224 -13.489688 0.000000 0.000000 0.000000 -6.873216 -1.130001 -0.767454 -23.947877 1.071674 -2.715343 -137.458520 -28.435522 65.380515 0.000000 0.000000 0.000000 4.244148 -5.889967 -2.398415 26.971852 -3.453622 -3.328220 134.158876 26.580312 65.772518 0.000000 0.000000 0.000000 
-0.015238 0.974412 -0.012957 -0.074435 9.451993 8.789072 1.535551 -0.539448 -6.174060 3.452685 0.102992 -7.042986 9.655092 21.268334 41.810614 0.000000 0.000000 0.000000 -2.495903 0.877322 -11.308701 -3.921491 0.582963 1.854254 2.013321 -1.037835 16.688342 0.000000 0.000000 0.000000 2.346647 -0.460453 5.737123 2.547852 -0.900019 -3.833689 -6.060476 1.066174 5.981213 5.717341 -2.003026 -13.451223 0.000000 0.000000 0.000000 -6.630354 -4.297485 0.453609 -24.083015 -1.485830 -2.260900 -139.204227 -32.413429 75.675465 0.000000 0.000000 0.000000 4.408753 -3.282651 -1.322610 28.142471 -0.787171 -2.984091 136.016484 30.952941 77.787150 0.000000 0.000000 0.000000 
-0.018568 0.974054 -0.019902 0.391740 9.817507 9.301644 1.174271 -0.660745 -7.527530 2.767889 0.114945 -6.795868 11.847482 23.105266 42.645392 0.000000 0.000000 0.000000 -2.987615 0.902120 -12.566407 -4.030783 0.648299 2.627171 1.840289 -1.065557 15.972074 0.000000 0.000000 0.000000 2.047615 -0.549646 7.340915 2.796152 -1.104629 -2.646196 -6.542596 0.570359 4.402281 5.591417 -1.912777 -13.436462 0.000000 0.000000 0.000000 -5.323432 -8.777942 2.332178 -25.059938 -4.483990 -1.782600 -141.990818 -37.190709 89.255587 0.000000 0.000000 0.000000 4.086859 1.379254 0.569200 29.329545 2.903064 -2.270752 139.375632 38.173681 96.129022 0.000000 0.000000 0.000000 
